<mxfile host="Electron" modified="2024-03-01T08:06:38.860Z" agent="Mozilla/5.0 (Windows NT 10.0; Win64; x64) AppleWebKit/537.36 (KHTML, like Gecko) draw.io/23.1.5 Chrome/120.0.6099.109 Electron/28.1.0 Safari/537.36" etag="ZISUC7OPAQvIyYLZaGWT" version="23.1.5" type="device">
  <diagram name="Страница — 1" id="TUdbi3gtHHj1jDcqYHT5">
    <mxGraphModel dx="1434" dy="884" grid="1" gridSize="10" guides="1" tooltips="1" connect="1" arrows="1" fold="1" page="1" pageScale="1" pageWidth="827" pageHeight="1169" math="0" shadow="0">
      <root>
        <mxCell id="0" />
        <mxCell id="1" parent="0" />
        <mxCell id="-H2JG8YgPfby64dMCURj-17" value="" style="rounded=0;whiteSpace=wrap;html=1;" parent="1" vertex="1">
          <mxGeometry x="160" y="40" width="560" height="720" as="geometry" />
        </mxCell>
        <mxCell id="-H2JG8YgPfby64dMCURj-21" style="rounded=0;orthogonalLoop=1;jettySize=auto;html=1;strokeColor=default;" parent="1" source="-H2JG8YgPfby64dMCURj-1" target="-H2JG8YgPfby64dMCURj-6" edge="1">
          <mxGeometry relative="1" as="geometry" />
        </mxCell>
        <mxCell id="-H2JG8YgPfby64dMCURj-24" style="rounded=0;orthogonalLoop=1;jettySize=auto;html=1;" parent="1" source="-H2JG8YgPfby64dMCURj-1" target="-H2JG8YgPfby64dMCURj-2" edge="1">
          <mxGeometry relative="1" as="geometry" />
        </mxCell>
        <mxCell id="-H2JG8YgPfby64dMCURj-37" style="rounded=0;orthogonalLoop=1;jettySize=auto;html=1;" parent="1" source="-H2JG8YgPfby64dMCURj-1" target="-H2JG8YgPfby64dMCURj-5" edge="1">
          <mxGeometry relative="1" as="geometry" />
        </mxCell>
        <mxCell id="-H2JG8YgPfby64dMCURj-44" style="rounded=0;orthogonalLoop=1;jettySize=auto;html=1;" parent="1" source="-H2JG8YgPfby64dMCURj-1" edge="1">
          <mxGeometry relative="1" as="geometry">
            <mxPoint x="190" y="505" as="targetPoint" />
          </mxGeometry>
        </mxCell>
        <mxCell id="-H2JG8YgPfby64dMCURj-1" value="Автор курса" style="shape=umlActor;verticalLabelPosition=bottom;verticalAlign=top;html=1;" parent="1" vertex="1">
          <mxGeometry x="60" y="370" width="30" height="60" as="geometry" />
        </mxCell>
        <mxCell id="-H2JG8YgPfby64dMCURj-36" style="rounded=0;orthogonalLoop=1;jettySize=auto;html=1;entryX=0;entryY=0;entryDx=0;entryDy=0;dashed=1;" parent="1" source="-H2JG8YgPfby64dMCURj-2" target="-H2JG8YgPfby64dMCURj-5" edge="1">
          <mxGeometry relative="1" as="geometry" />
        </mxCell>
        <mxCell id="-H2JG8YgPfby64dMCURj-2" value="Создать курс" style="ellipse;whiteSpace=wrap;html=1;" parent="1" vertex="1">
          <mxGeometry x="190" y="100" width="140" height="70" as="geometry" />
        </mxCell>
        <mxCell id="-H2JG8YgPfby64dMCURj-5" value="Изменить содержание и структуру" style="ellipse;whiteSpace=wrap;html=1;" parent="1" vertex="1">
          <mxGeometry x="344" y="190" width="140" height="70" as="geometry" />
        </mxCell>
        <mxCell id="-H2JG8YgPfby64dMCURj-6" value="Зарегестрироваться" style="ellipse;whiteSpace=wrap;html=1;" parent="1" vertex="1">
          <mxGeometry x="344" y="365" width="140" height="70" as="geometry" />
        </mxCell>
        <mxCell id="2xdnWmDHtFl_0H_wcAew-3" style="rounded=0;orthogonalLoop=1;jettySize=auto;html=1;dashed=1;" edge="1" parent="1" source="-H2JG8YgPfby64dMCURj-13" target="2xdnWmDHtFl_0H_wcAew-2">
          <mxGeometry relative="1" as="geometry" />
        </mxCell>
        <mxCell id="-H2JG8YgPfby64dMCURj-13" value="Управлять студентами курса" style="ellipse;whiteSpace=wrap;html=1;" parent="1" vertex="1">
          <mxGeometry x="190" y="470" width="140" height="70" as="geometry" />
        </mxCell>
        <mxCell id="-H2JG8YgPfby64dMCURj-18" value="Информационная система процессов поддержки дополнительного образования" style="text;html=1;align=center;verticalAlign=middle;whiteSpace=wrap;rounded=0;" parent="1" vertex="1">
          <mxGeometry x="320" y="50" width="240" height="30" as="geometry" />
        </mxCell>
        <mxCell id="-H2JG8YgPfby64dMCURj-23" style="rounded=0;orthogonalLoop=1;jettySize=auto;html=1;entryX=1;entryY=0.5;entryDx=0;entryDy=0;" parent="1" source="-H2JG8YgPfby64dMCURj-19" target="-H2JG8YgPfby64dMCURj-6" edge="1">
          <mxGeometry relative="1" as="geometry" />
        </mxCell>
        <mxCell id="-H2JG8YgPfby64dMCURj-45" style="rounded=0;orthogonalLoop=1;jettySize=auto;html=1;entryX=1;entryY=0.5;entryDx=0;entryDy=0;" parent="1" source="-H2JG8YgPfby64dMCURj-19" target="-H2JG8YgPfby64dMCURj-29" edge="1">
          <mxGeometry relative="1" as="geometry" />
        </mxCell>
        <mxCell id="-H2JG8YgPfby64dMCURj-46" style="rounded=0;orthogonalLoop=1;jettySize=auto;html=1;entryX=1;entryY=0.5;entryDx=0;entryDy=0;" parent="1" source="-H2JG8YgPfby64dMCURj-19" target="-H2JG8YgPfby64dMCURj-30" edge="1">
          <mxGeometry relative="1" as="geometry" />
        </mxCell>
        <mxCell id="-H2JG8YgPfby64dMCURj-47" style="rounded=0;orthogonalLoop=1;jettySize=auto;html=1;entryX=1;entryY=0.5;entryDx=0;entryDy=0;" parent="1" source="-H2JG8YgPfby64dMCURj-19" target="-H2JG8YgPfby64dMCURj-31" edge="1">
          <mxGeometry relative="1" as="geometry" />
        </mxCell>
        <mxCell id="2xdnWmDHtFl_0H_wcAew-4" style="rounded=0;orthogonalLoop=1;jettySize=auto;html=1;entryX=1;entryY=0.5;entryDx=0;entryDy=0;" edge="1" parent="1" source="-H2JG8YgPfby64dMCURj-19" target="2xdnWmDHtFl_0H_wcAew-1">
          <mxGeometry relative="1" as="geometry" />
        </mxCell>
        <mxCell id="-H2JG8YgPfby64dMCURj-19" value="Студент" style="shape=umlActor;verticalLabelPosition=bottom;verticalAlign=top;html=1;" parent="1" vertex="1">
          <mxGeometry x="760" y="370" width="30" height="60" as="geometry" />
        </mxCell>
        <mxCell id="-H2JG8YgPfby64dMCURj-29" value="Присоедениться к курсу" style="ellipse;whiteSpace=wrap;html=1;" parent="1" vertex="1">
          <mxGeometry x="520" y="460" width="140" height="70" as="geometry" />
        </mxCell>
        <mxCell id="-H2JG8YgPfby64dMCURj-30" value="Прикрепить работу" style="ellipse;whiteSpace=wrap;html=1;" parent="1" vertex="1">
          <mxGeometry x="520" y="570" width="140" height="70" as="geometry" />
        </mxCell>
        <mxCell id="-H2JG8YgPfby64dMCURj-31" value="Изучить материал" style="ellipse;whiteSpace=wrap;html=1;" parent="1" vertex="1">
          <mxGeometry x="520" y="670" width="140" height="70" as="geometry" />
        </mxCell>
        <mxCell id="2xdnWmDHtFl_0H_wcAew-1" value="Выбрать курс" style="ellipse;whiteSpace=wrap;html=1;" vertex="1" parent="1">
          <mxGeometry x="520" y="290" width="140" height="70" as="geometry" />
        </mxCell>
        <mxCell id="2xdnWmDHtFl_0H_wcAew-2" value="Пригласить студента" style="ellipse;whiteSpace=wrap;html=1;" vertex="1" parent="1">
          <mxGeometry x="190" y="570" width="140" height="70" as="geometry" />
        </mxCell>
      </root>
    </mxGraphModel>
  </diagram>
</mxfile>
